Coordinates
nRows=232
nColumns=2
inDegrees=yes
endheader
time	ankle_angle_r	
3.26008	  9.185863	
3.29335	  9.161937	
3.32661	  9.151543	
3.35988	  9.154628	
3.39315	  9.163096	
3.42641	  9.170374	
3.45968	  9.174006	
3.49294	  9.173058	
3.52621	  9.165689	
3.55948	  9.155201	
3.59274	  9.152618	
3.62601	  9.162830	
3.65927	  9.175926	
3.69254	  9.179682	
3.72581	  9.171176	
3.75907	  9.156925	
3.79234	  9.150263	
3.8256	  9.158409	
3.85887	  9.171288	
3.89214	  9.175483	
3.9254	  9.170063	
3.95867	  9.162855	
3.99194	  9.161417	
4.0252	  9.166750	
4.05847	  9.173837	
4.09173	  9.179793	
4.125	  9.184346	
4.15827	  9.185358	
4.19153	  9.182645	
4.2248	  9.179053	
4.25806	  9.177011	
4.29133	  9.178973	
4.3246	  9.183769	
4.35786	  9.185038	
4.39113	  9.180133	
4.4244	  9.172494	
4.45766	  9.165196	
4.49093	  9.160648	
4.52419	  9.161817	
4.55746	  9.167970	
4.59073	  9.173502	
4.62399	  9.173198	
4.65726	  9.168208	
4.69052	  9.166241	
4.72379	  9.170857	
4.75706	  9.174856	
4.79032	  9.172768	
4.82359	  9.168141	
4.85685	  9.163572	
4.89012	  9.158909	
4.92339	  9.157260	
4.95665	  9.162140	
4.98992	  9.171941	
5.02319	  9.179419	
5.05645	  9.177467	
5.08972	  9.166489	
5.12298	  9.151830	
5.15625	  9.137908	
5.18952	  9.130099	
5.22278	  9.132914	
5.25605	  9.143006	
5.28931	  9.153455	
5.32258	  9.162990	
5.35585	  9.173369	
5.38911	  9.181891	
5.42238	  9.180891	
5.45565	  9.168101	
5.48891	  9.156479	
5.52218	  9.159551	
5.55544	  9.173458	
5.58871	  9.187180	
5.62198	  9.193440	
5.65524	  9.186838	
5.68851	  9.167426	
5.72177	  9.144161	
5.75504	  9.129880	
5.78831	  9.130090	
5.82157	  9.137414	
5.85484	  9.142417	
5.8881	  9.143424	
5.92137	  9.142308	
5.95464	  9.141018	
5.9879	  9.142452	
6.02117	  9.145196	
6.05444	  9.143624	
6.0877	  9.139687	
6.12097	  9.140663	
6.15423	  9.146339	
6.1875	  9.152125	
6.22077	  9.156737	
6.25403	  9.160461	
6.2873	  9.161759	
6.32056	  9.157021	
6.35383	  9.146316	
6.3871	  9.138502	
6.42036	  9.141717	
6.45363	  9.151791	
6.4869	  9.159544	
6.52016	  9.162574	
6.55343	  9.163409	
6.58669	  9.163914	
6.61996	  9.164217	
6.65323	  9.163355	
6.68649	  9.160388	
6.71976	  9.155651	
6.75302	  9.150598	
6.78629	  9.145136	
6.81956	  9.139131	
6.85282	  9.138504	
6.88609	  9.149438	
6.91935	  9.165462	
6.95262	  9.174872	
6.98589	  9.177734	
7.01915	  9.178360	
7.05242	  9.172774	
7.08569	  9.160007	
7.11895	  9.148692	
7.15222	  9.146322	
7.18548	  9.153408	
7.21875	  9.165350	
7.25202	  9.177839	
7.28528	  9.187638	
7.31855	  9.189328	
7.35181	  9.183565	
7.38508	  9.180613	
7.41835	  9.184349	
7.45161	  9.187547	
7.48488	  9.187262	
7.51815	  9.186517	
7.55141	  9.183763	
7.58468	  9.177811	
7.61794	  9.174098	
7.65121	  9.175041	
7.68448	  9.175912	
7.71774	  9.174907	
7.75101	  9.177642	
7.78427	  9.188037	
7.81754	  9.198806	
7.85081	  9.199724	
7.88407	  9.193368	
7.91734	  9.188316	
7.9506	  9.185368	
7.98387	  9.183513	
8.01714	  9.184725	
8.0504	  9.188695	
8.08367	  9.193366	
8.11694	  9.196049	
8.1502	  9.193540	
8.18347	  9.187535	
8.21673	  9.184429	
8.25	  9.187410	
8.28327	  9.192884	
8.31653	  9.192705	
8.3498	  9.182260	
8.38306	  9.168621	
8.41633	  9.162779	
8.4496	  9.166238	
8.48286	  9.173487	
8.51613	  9.179439	
8.5494	  9.180583	
8.58266	  9.177209	
8.61593	  9.174122	
8.64919	  9.177424	
8.68246	  9.187973	
8.71573	  9.195537	
8.74899	  9.191170	
8.78226	  9.183054	
8.81552	  9.183494	
8.84879	  9.191065	
8.88206	  9.198057	
8.91532	  9.200749	
8.94859	  9.198095	
8.98185	  9.191657	
9.01512	  9.184918	
9.04839	  9.180143	
9.08165	  9.179878	
9.11492	  9.184900	
9.14819	  9.189334	
9.18145	  9.188106	
9.21472	  9.184119	
9.24798	  9.181869	
9.28125	  9.182289	
9.31452	  9.181530	
9.34778	  9.175228	
9.38105	  9.169673	
9.41431	  9.173933	
9.44758	  9.182836	
9.48085	  9.186391	
9.51411	  9.184387	
9.54738	  9.181365	
9.58065	  9.180738	
9.61391	  9.184769	
9.64718	  9.192435	
9.68044	  9.199927	
9.71371	  9.203589	
9.74698	  9.202848	
9.78024	  9.201970	
9.81351	  9.203846	
9.84677	  9.205724	
9.88004	  9.205577	
9.91331	  9.202848	
9.94657	  9.195642	
9.97984	  9.187227	
10.0131	  9.184871	
10.0464	  9.189692	
10.0796	  9.197780	
10.1129	  9.204414	
10.1462	  9.205238	
10.1794	  9.201724	
10.2127	  9.199655	
10.246	  9.200854	
10.2792	  9.204080	
10.3125	  9.206778	
10.3458	  9.203652	
10.379	  9.194895	
10.4123	  9.188929	
10.4456	  9.189978	
10.4788	  9.194087	
10.5121	  9.195698	
10.5454	  9.192813	
10.5786	  9.189609	
10.6119	  9.190138	
10.6452	  9.192092	
10.6784	  9.192239	
10.7117	  9.188763	
10.745	  9.180135	
10.7782	  9.170520	
10.8115	  9.165126	
10.8448	  9.161030	
10.878	  9.158418	
10.9113	  9.168198	
10.9446	  9.193481	
